# xmcd
#
# Track frame offsets: 
#        150
#        17406
#        29346
#        45962
#
# Disc length: 843 seconds
#
# Revision: 1
# Processed by: cddbd v1.5.2PL0 Copyright (c) Steve Scherf et al.
# Submitted via: ExactAudioCopy v0.99pb5
#
DISCID=1f034904
DTITLE=YUI - to Mother
DYEAR=2010
DGENRE=J-Pop
TTITLE0=to Mother
TTITLE1=Tonight
TTITLE2=GLORIA (YUI Acoustic Version)
TTITLE3=to Mother (Instrumental)
EXTD=
EXTT0=
EXTT1=
EXTT2=
EXTT3=
PLAYORDER=
